<svg width="16" height="16" viewBox="0 0 16 16" fill="none" xmlns="http://www.w3.org/2000/svg">
<circle cx="4" cy="7" r="1" fill="#C4C4C4"/>
<circle cx="12" cy="7" r="1" fill="#C4C4C4"/>
<path d="M9.49974 8.50075C8.99974 7.50075 8.99935 7.50065 7.99968 7.50032C7 7.5 7.99976 6.50073 6.99976 6.00073" stroke="#C4C4C4"/>
<path d="M1 1L15 13" stroke="#C4C4C4" stroke-width="1.3" stroke-linecap="round" stroke-linejoin="round"/>
<path d="M14 12H12.5C12.5 12.5 12.5 13.5 13 14.5C11 14 10 13 9 12C9 12 5.85609 12 2.99974 12C1.89517 12 1 11.1046 1 10V3.94152C1 3.08066 1.55086 2.31638 2.36754 2.04415L2.5 2" stroke="#C4C4C4" stroke-width="1.33"/>
<path d="M5 2H13C14.1046 2 15 2.89543 15 4V10" stroke="#C4C4C4" stroke-width="1.33" stroke-linecap="round" stroke-linejoin="round"/>
</svg>
