<svg id="Capa_1" enable-background="new 0 0 512 512" height="512" viewBox="0 0 512 512" width="512" xmlns="http://www.w3.org/2000/svg"><g><path d="m100.683 90.917c.45 18.746 4.076 36.907 10.465 53.854h289.703c6.388-16.948 10.015-35.108 10.465-53.854z"/><path d="m200.059 237.519 40.956 18.533h29.971l40.956-18.533c31.135-13.295 56.591-35.442 73.95-62.777h-259.784c17.359 27.336 42.815 49.482 73.951 62.777z"/><path d="m241.014 304.328v-48.275l-40.956 18.428c-59.181 25.271-97.839 82.522-99.375 146.603h310.633c-1.537-64.08-40.194-121.331-99.375-146.603l-40.956-18.428v48.275zm29.972 61.263h-29.971v-30.232h29.971z"/><path d="m72.738 0h366.524v60.946h-366.524z"/><path d="m72.738 451.054h366.524v60.946h-366.524z"/></g></svg>