<?xml version="1.0" encoding="utf-8"?>
<!-- Generator: Adobe Illustrator 24.0.0, SVG Export Plug-In . SVG Version: 6.00 Build 0)  -->
<svg version="1.1" id="Layer_1" xmlns="http://www.w3.org/2000/svg" xmlns:xlink="http://www.w3.org/1999/xlink" x="0px" y="0px"
	 viewBox="0 0 512 512" style="enable-background:new 0 0 512 512;" xml:space="preserve">
<path d="M422,224.5c-14.6-14.1-29.4-26.6-44.3-37.4l57-34.4l-28.6-47.3l-82.5,49.9c-29.4-13-59.1-19.7-88.7-19.7
	c-63.1,0-126.1,30-187.2,88.9l-19.7,19l19.7,19c13.4,13,27,24.5,40.6,34.7l-76.7,46.4L40.1,391l101.4-61.2
	c31,14.6,62.1,21.9,93.4,21.9c63.1,0,126.1-30,187.2-89l19.7-19L422,224.5z M173.4,243.6c0,0.7,0,1.6,0,2.3l-35.6,21.5
	c-10.6-6.9-21.3-14.8-32.3-23.8c32.1-26.8,64-43.9,95.2-51.1C184.2,203.5,173.4,222.2,173.4,243.6z M199.9,294.5l0.4-0.2
	c0.2,0.2,0.4,0.4,0.7,0.5C200.6,294.7,200.2,294.5,199.9,294.5z M205.4,225.3c-7,0-12.6-5.6-12.6-12.6c0-7,5.6-12.6,12.6-12.6
	c7,0,12.6,5.6,12.6,12.6C218,219.7,212.3,225.3,205.4,225.3z M269,294.7c16.6-11.1,27.5-29.8,27.5-51.1c0-2.5-0.2-4.8-0.4-7.1
	l31.9-19.2c12.2,7.4,24.3,16.2,36.5,26.3C332.1,270.4,300.2,287.5,269,294.7z"/>
<g>
	<path d="M512.5,309.1v-234H178.2v0H0.5v37.4h116.9v51.6c6-3.7,12.3-7.6,15.7-9.3c4.5-2.3,14.7-6.3,21.7-9v-29.9h320.3v193.2v45.2
		H154.8v-11.6l-9.6-2.8l-27.8,12.5v42.7h357.7v68.2h38.3V309.1H512.5z"/>
	<path d="M154.8,219.8c-4.8,1.2-4.9,0.4-16.6,5.5c-8.1,3.5-16.9,12.3-20.8,16.4v6l21.5,10l15.8-7.7V219.8z"/>
</g>
</svg>
