<svg width="16" height="16" viewBox="0 0 16 16" fill="none" xmlns="http://www.w3.org/2000/svg">
<path d="M10 6.22705V2.66705C10.0005 2.17107 9.81669 1.6926 9.48425 1.32452C9.15181 0.95644 8.69447 0.725015 8.201 0.675169C7.70753 0.625324 7.21314 0.760615 6.81381 1.05478C6.41448 1.34894 6.1387 1.78099 6.04 2.26705" stroke="white" stroke-width="1.33" stroke-linecap="round" stroke-linejoin="round"/>
<path d="M3.33313 6.66699V8.00033C3.32633 8.93026 3.59752 9.84102 4.11191 10.6158C4.62631 11.3905 5.36044 11.9939 6.22013 12.3485C7.07982 12.7031 8.02586 12.7928 8.93687 12.6061C9.84788 12.4193 10.6823 11.9646 11.3331 11.3003C11.7957 10.8282 12.6665 9.50049 12.6665 8.00033V6.66699" stroke="white" stroke-width="1.33" stroke-linecap="round" stroke-linejoin="round"/>
<path d="M8 12.667V15.3337" stroke="white" stroke-width="1.33" stroke-linecap="round" stroke-linejoin="round"/>
<path d="M5.3335 15.333H10.6668" stroke="white" stroke-width="1.33" stroke-linecap="round" stroke-linejoin="round"/>
</svg>
