<svg height="512pt" viewBox="0 -48 512 512" width="512pt" xmlns="http://www.w3.org/2000/svg"><path d="m190.394531 225.859375c-1.683593 0-3.371093-.425781-4.894531-1.28125-3.15625-1.773437-5.113281-5.117187-5.113281-8.742187v-110.4375c0-3.628907 1.957031-6.96875 5.113281-8.742188s7.023438-1.703125 10.113281.191406l90.195313 55.21875c2.972656 1.820313 4.789062 5.058594 4.789062 8.550782 0 3.488281-1.816406 6.730468-4.789062 8.546874l-90.195313 55.222657c-1.597656.980469-3.410156 1.472656-5.21875 1.472656zm10.007813-102.589844v74.695313l61-37.347656zm0 0"/><path d="m491.980469 215.230469h-21v-185.171875c0-16.578125-13.46875-30.058594-30.019531-30.058594h-410.941407c-16.550781 0-30.019531 13.480469-30.019531 30.058594v261.113281c0 16.578125 13.46875 30.066406 30.019531 30.066406h281.582031v74.710938c0 11.050781 8.976563 20.050781 20.007813 20.050781h160.371094c11.039062 0 20.019531-9 20.019531-20.050781v-160.667969c0-11.0625-8.980469-20.050781-20.019531-20.050781zm-461.960938 85.96875c-5.507812 0-10-4.5-10-10.027344v-261.113281c0-5.519532 4.492188-10.019532 10-10.019532h410.941407c5.519531 0 10.007812 4.5 10.007812 10.019532v185.171875h-119.359375c-11.03125 0-20.007813 8.988281-20.007813 20.050781v65.917969zm461.960938 94.75h-160.371094v-160.667969h160.371094zm0 0"/><path d="m140.789062 280.074219h-90.195312c-5.527344 0-10.007812-4.484375-10.007812-10.019531 0-5.535157 4.480468-10.023438 10.007812-10.023438h90.195312c5.527344 0 10.007813 4.488281 10.007813 10.023438 0 5.535156-4.480469 10.019531-10.007813 10.019531zm0 0"/><path d="m175.882812 280.074219c-5.527343 0-10.011718-4.484375-10.011718-10.019531 0-5.535157 4.476562-10.023438 10-10.023438h.011718c5.527344 0 10.007813 4.488281 10.007813 10.023438 0 5.535156-4.480469 10.019531-10.007813 10.019531zm0 0"/><path d="m451.960938 325.75c-7.148438 0-14.148438 2.609375-19.5625 7.269531-1.507813 1.300781-.898438 1.140625-2.320313.648438-1.195313-.414063-2.375-1.1875-3.507813-1.753907-7.222656-3.609374-14.445312-7.222656-21.667968-10.832031-.789063-.394531-2.359375-.824219-2.960938-1.480469-.996094-1.085937-.242187-3.257812-.296875-4.902343-.054687-1.675781-.585937-2.214844.4375-3.136719.855469-.773438 2.453125-1.234375 3.480469-1.75 7.179688-3.605469 14.363281-7.214844 21.546875-10.824219.902344-.453125 1.976563-1.242187 2.957031-1.484375.214844-.054687.519532-.386718.746094-.375.65625.03125 2.113281 1.738282 2.722656 2.203125 5.515625 4.214844 12.40625 6.390625 19.339844 6.121094 11.980469-.464844 22.78125-8.324219 26.964844-19.554687 4.292968-11.527344.933594-24.835938-8.253906-32.988282-9.191407-8.15625-22.835938-9.867187-33.734376-4.164062-5.21875 2.726562-9.582031 6.996094-12.429687 12.148437-1.328125 2.394531-2.320313 4.972657-2.949219 7.636719-.347656 1.492188-.582031 3.015625-.703125 4.542969-.058593.777343-.089843 1.5625-.089843 2.34375 0 .667969.558593 3.273437.25 3.75-.722657 1.105469-4.140626 2.082031-5.28125 2.652343-3.652344 1.835938-7.304688 3.671876-10.960938 5.507813-3.375 1.695313-6.75 3.390625-10.128906 5.085937-.738282.371094-1.917969 1.292969-2.746094 1.382813-1.191406.128906-3.289062-2.316406-4.414062-3.078125-10.992188-7.449219-25.980469-6.605469-36.097657 1.941406-9.382812 7.925782-13.066406 21.140625-9.0625 32.765625 3.9375 11.445313 14.734375 19.625 26.832031 20.253907 7.074219.367187 14.152344-1.820313 19.773438-6.140626 1.132812-.871093 1.894531-2.136718 3.144531-2.007812.992188.097656 2.421875 1.207031 3.304688 1.652344 7.113281 3.554687 14.222656 7.105468 21.335937 10.664062 1.136719.566406 2.453125 1.042969 3.507813 1.75 1.296875.871094 1 .253906.859375 2.351563-.402344 6.164062 1.179687 12.40625 4.425781 17.65625 6.441406 10.402343 18.875 15.984375 30.925781 13.789062 11.875-2.164062 21.542969-11.628906 24-23.441406 2.5-12.003906-2.742187-24.605469-12.996094-31.320313-4.851562-3.175781-10.589843-4.882812-16.390624-4.882812zm-5.039063-59.148438c4.207031-1.683593 8.691406-1.601562 12.027344 1.910157 3.253906 3.417969 3.648437 8.804687.941406 12.652343-3.527344 5.011719-10.917969 5.679688-15.261719 1.332032-4.660156-4.667969-3.484375-12.71875 2.292969-15.894532.097656-.042968-3.113281 1.707032 0 0zm-75.28125 59.070313c-12.882813 0-13.003906-19.996094 0-20.042969 5.300781-.015625 9.800781 4.347656 9.996094 9.628906.203125 5.597657-4.378907 10.414063-9.996094 10.414063zm90.328125 30.179687c0 10.351563-14.542969 13.699219-19.039062 4.257813-2.96875-6.226563 1.367187-13.75 8.25-14.289063 5.734374-.449218 10.828124 4.277344 10.789062 10.03125zm0 0"/></svg>