<svg id="Layer_1" data-name="Layer 1" xmlns="http://www.w3.org/2000/svg" viewBox="0 0 512 512"><defs><style>.cls-1{stroke:#fff;stroke-miterlimit:10;stroke-width:10px;}</style></defs><title>icon_mercury</title><path d="M259.5,0c7.18,1.57,13.86,4.08,19.5,9.12,10.05,9,13.72,23.36,9.19,37.3C284.33,58.28,272,67.61,259.48,69a34.91,34.91,0,0,1-37.07-25C216.89,24.68,230,3.77,249.82.64A14.61,14.61,0,0,0,251.93,0ZM273,34.71a17.33,17.33,0,0,0-34.65-.12,17.33,17.33,0,1,0,34.65.12Z"/><path d="M187.14,173.49c1,13.67,2,27.09,3.08,40.51q2.85,36.94,5.74,73.86l2.73,35.05c.09,1.13.24,2.26.23,3.39,0,5.38-3.45,9.27-8.27,9.51s-8.59-3.45-9-8.79c-1.08-13.18-2.05-26.38-3.07-39.57q-3.24-41.82-6.5-83.65c-.62-8-1.21-16.08-1.82-24.12-.16-2-.36-4-.57-6.43-7.85,0-15.49,0-23.13,0a26.29,26.29,0,0,1-5.26-.34,8.27,8.27,0,0,1-6.69-8.44,8,8,0,0,1,6.62-8,24.09,24.09,0,0,1,5.23-.5q47.83,0,95.67,0h5c0-1.91,0-3.51,0-5.12.07-10.08,0-20.16.31-30.23.13-4.19,3.11-6.81,7.23-7.48a8.23,8.23,0,0,1,8.85,5,17.47,17.47,0,0,1,.88,5.91c.09,9.2,0,18.4,0,27.6v4.36H365a24.2,24.2,0,0,1,4.51.31c4.87.91,7.59,4.34,7.3,9a8.29,8.29,0,0,1-8.13,7.93c-4.4.26-8.82.1-13.23.11H341.82c-.42,4.65-.87,9.11-1.21,13.58q-4.32,56.34-8.6,112.69c-.68,8.92-1.44,17.83-2.13,26.75-.47,5.92-4.13,9.79-9.1,9.54-5.23-.26-8.66-4.52-8.21-10.64,1.51-20.36,3.13-40.7,4.71-61.05Q320.17,227,323,189.88c.42-5.38.82-10.76,1.24-16.39Z"/><path class="cls-1" d="M239.84,485.79c1.83,17.45-12.68,24.76-23,20.48-8.52-3.52-10.43-10.84-11-19-2.19-33.72-18.62-58.25-49-72.59-53.21-25.12-116,13.25-118.42,71.94-.6,14.26-8.63,22.71-19.64,20.67-9-1.69-14.36-8.28-14-18.55,1.39-41,19-73.56,53.15-96,69.72-45.65,162.67-6.59,179.47,74.93C238.63,473.62,239.05,479.74,239.84,485.79Z"/><path d="M255.6,78c33-.09,60.92,27.45,60.67,59.72,0,5-2.41,8.23-6.71,9.18-3.93.86-7.85-.81-9.41-4.42a17.2,17.2,0,0,1-1.22-5.83,43.32,43.32,0,0,0-43.29-41.29c-23.11,0-41.79,18-43.11,41.44-.39,7-4.16,11-9.7,10.31-4.85-.62-7.81-4.11-7.64-9.54.68-21.28,10-37.89,27.62-49.71A58.47,58.47,0,0,1,255.6,78Z"/><path class="cls-1" d="M189.34,289.22c.11,36.53-30.73,67.36-67.3,67.26S54.45,325.2,54.93,289c.49-36.59,30.44-66.51,67-66.9C158.21,221.71,189.23,252.58,189.34,289.22Zm-67.26,33.62a33.58,33.58,0,0,0,.15-67.16c-18.15-.07-33.64,15.35-33.69,33.54S103.8,322.8,122.08,322.84Z"/><path class="cls-1" d="M506.84,485.79c1.83,17.45-12.68,24.76-23,20.48-8.52-3.52-10.43-10.84-11-19-2.19-33.72-18.62-58.25-49-72.59-53.21-25.12-116,13.25-118.42,71.94-.6,14.26-8.63,22.71-19.64,20.67-9-1.69-14.36-8.28-14-18.55,1.39-41,19-73.56,53.15-96,69.72-45.65,162.67-6.59,179.47,74.93C505.63,473.62,506.05,479.74,506.84,485.79Z"/><path class="cls-1" d="M456.34,289.22c.11,36.53-30.73,67.36-67.3,67.26S321.45,325.2,321.93,289c.49-36.59,30.44-66.51,67-66.9C425.21,221.71,456.23,252.58,456.34,289.22Zm-67.26,33.62a33.58,33.58,0,0,0,.15-67.16c-18.15-.07-33.64,15.35-33.69,33.54S370.8,322.8,389.08,322.84Z"/></svg>