<svg id="Layer_1" data-name="Layer 1" xmlns="http://www.w3.org/2000/svg" viewBox="0 0 270 270"><defs><style>.cls-1{fill:#e8772c;}.cls-2{fill:#fff;}</style></defs><title>icon_mercury</title><circle class="cls-1" cx="135" cy="135" r="135"/><path class="cls-2" d="M135.62,21.15a21.27,21.27,0,0,1,10,4.68c5.16,4.61,7,12,4.72,19.15-2,6.09-8.3,10.88-14.74,11.57a17.92,17.92,0,0,1-19-12.85c-2.84-9.88,3.88-20.61,14.07-22.22a8.39,8.39,0,0,0,1.08-.33ZM142.57,39a8.9,8.9,0,1,0-8.93,8.87A9,9,0,0,0,142.57,39Z"/><path class="cls-2" d="M98.47,110.21c.53,7,1,13.91,1.58,20.8q1.47,19,3,37.92.69,9,1.4,18c0,.58.12,1.16.12,1.74,0,2.77-1.77,4.76-4.25,4.88s-4.41-1.76-4.64-4.51c-.55-6.77-1-13.54-1.57-20.31q-1.66-21.48-3.34-42.95c-.32-4.12-.62-8.25-.93-12.38-.08-1-.18-2-.3-3.3H77.62a13.47,13.47,0,0,1-2.7-.18,4.25,4.25,0,0,1-3.43-4.33,4.13,4.13,0,0,1,3.39-4.13,12.77,12.77,0,0,1,2.69-.25q24.56,0,49.11,0h2.55V98.56c0-5.18,0-10.35.16-15.52a4,4,0,0,1,3.71-3.84,4.22,4.22,0,0,1,4.54,2.54,8.87,8.87,0,0,1,.46,3c0,4.72,0,9.44,0,14.17v2.24h51.66a12.7,12.7,0,0,1,2.31.16,4.37,4.37,0,0,1-.42,8.69c-2.26.13-4.53,0-6.79,0h-7c-.22,2.39-.45,4.68-.62,7Q175,146,172.84,174.91c-.35,4.58-.74,9.16-1.09,13.74-.24,3-2.12,5-4.67,4.89s-4.45-2.32-4.22-5.46c.78-10.45,1.61-20.89,2.42-31.34q1.49-19.05,3-38.11c.21-2.76.41-5.53.63-8.42Z"/><path class="cls-2" d="M97.67,214.16c.48,4.62-3.36,6.56-6.09,5.43-2.26-.94-2.77-2.87-2.91-5.05-.58-8.92-4.93-15.42-13-19.21-14.09-6.66-30.7,3.5-31.35,19-.16,3.78-2.29,6-5.2,5.47-2.39-.44-3.8-2.19-3.71-4.91.37-10.85,5-19.47,14.07-25.4A31.07,31.07,0,0,1,97,209.37C97.35,210.94,97.46,212.56,97.67,214.16Z"/><path class="cls-2" d="M133.37,184.37c17.63.4,31.47,14.14,31.39,30.62,0,2.58-1.16,4.19-3.4,4.76a4.22,4.22,0,0,1-4.87-2.24,9,9,0,0,1-.63-3,22.24,22.24,0,0,0-21.65-21.23c-11.12-.44-21,8-22.58,19.39-.14,1-.08,1.94-.21,2.9-.4,2.79-2.39,4.57-4.76,4.34s-4.1-2.16-4.06-5a29.33,29.33,0,0,1,4.88-16.11C113.73,189.35,122.64,184.67,133.37,184.37Z"/><path class="cls-2" d="M199.89,184.38c17.66-.12,32,14,32,30.5,0,2.69-1.17,4.34-3.48,4.9a4.17,4.17,0,0,1-4.72-2.18,8.17,8.17,0,0,1-.69-3,22.24,22.24,0,0,0-21.35-21.33c-11.05-.63-21.08,7.72-22.85,19.07-.19,1.21-.16,2.46-.37,3.66a4.37,4.37,0,0,1-8.7-.82,28.54,28.54,0,0,1,3.83-14.65C179.62,190.13,188.78,184.85,199.89,184.38Z"/><path class="cls-2" d="M133.62,61.18c16.91,0,31.27,14.08,31.14,30.65,0,2.56-1.23,4.23-3.44,4.71a4.13,4.13,0,0,1-4.83-2.26,9,9,0,0,1-.63-3,22.2,22.2,0,0,0-44.35.08c-.21,3.6-2.14,5.66-5,5.29-2.49-.32-4-2.11-3.93-4.89.35-10.93,5.14-19.46,14.18-25.52A29.89,29.89,0,0,1,133.62,61.18Z"/><path class="cls-2" d="M84.3,162.12a17.79,17.79,0,1,1-17.85-17.77A18,18,0,0,1,84.3,162.12ZM66.49,171a8.89,8.89,0,1,0,0-17.78,8.89,8.89,0,1,0,0,17.78Z"/><path class="cls-2" d="M200.84,179.93a17.79,17.79,0,1,1,17.79-17.84A18,18,0,0,1,200.84,179.93Zm8.89-17.84a8.89,8.89,0,1,0-8.84,8.93A9,9,0,0,0,209.73,162.09Z"/><path class="cls-2" d="M151.47,162.12a17.8,17.8,0,1,1-17.87-17.77A18,18,0,0,1,151.47,162.12Zm-8.9,0a8.9,8.9,0,1,0-8.85,8.92A9,9,0,0,0,142.57,162.1Z"/></svg>