<svg id="Layer_1" data-name="Layer 1" xmlns="http://www.w3.org/2000/svg" viewBox="0 0 512 512"><title>icon_mercury</title><path d="M60.7,468.88c-9-2.72-15.39-8-16.27-17.92a25.86,25.86,0,0,1,1-8.67Q62,379.61,78.73,317c.36-1.34.64-2.7,1.08-4.59H22.93c-9.43,0-12.93-3.48-12.93-12.89Q10,189.76,10.05,80c0-3.26-.62-5.57-3.36-7.89-5.52-4.67-7.53-11.06-6-18.2C2.32,46.48,7,41.53,14.32,39.37a28.11,28.11,0,0,1,7.88-.92q119.82-.06,239.63,0c10.72,0,18.11,4.82,20.91,13.55a19.79,19.79,0,0,1-6,21,8.36,8.36,0,0,0-2.55,5.53c-.16,26.63-.11,53.25-.11,79.88V164c-6.44-1.35-12.43-2.47-18.32-4-.75-.2-1.31-2.54-1.31-3.9-.09-17.09-.06-34.19-.06-51.28V78H29.76V292.54h224.6V239.91c6.46,1.35,12.33,2.49,18.13,3.91.72.18,1.54,1.88,1.54,2.88.09,18.21.18,36.43,0,54.65-.07,7.36-4.19,11-11.88,11-17.66.05-35.32,0-53,0h-5c.42,1.79.69,3.12,1,4.44,10.95,41.09,21.68,82.24,33,123.23,3.42,12.37.3,24.68-15.25,28.82h-5.88c-9-2.52-14.34-8.33-16.67-17.51-5.45-21.41-11.27-42.73-17-64.07q-9.51-35.67-19.12-71.32c-.36-1.33-1.7-3.42-2.61-3.44-13.7-.22-27.4-.15-41.11-.15-.42,1.41-.78,2.47-1.06,3.54-11.79,44.18-23.73,88.33-35.22,132.58-2.55,9.79-6.8,17.28-16.9,20.37Z"/><path d="M46.05,252.17V135.75h79.76V252.17Zm11.14-105.7v94.3h57.47v-94.3Z"/><path d="M390.08,480.91c-13.54-5.08-17.08-10.81-16.21-25.46,2.34-39.15,5.28-78.28,6.62-117.47,1.1-32,.23-64.13.23-96.54l-32.22-6.87q-41.87-8.91-83.73-17.85c-10.24-2.2-16.55-9.33-16.85-18.69-.28-9,5.14-17.16,13.76-19.26a28.09,28.09,0,0,1,12-.08C309.39,186.15,345,194,380.8,201.38c5.53,1.14,11.48.1,17.16.75a62.18,62.18,0,0,1,12.8,3.21c2.57.88,3.45,3,3,6-2.84,19.67-5.34,39.39-8.19,59.06-.45,3.17.08,5.22,2.67,7.16,3.7,2.75,7.1,5.89,10.79,9,4.18-3.54,8.34-6.85,12.2-10.48a5.74,5.74,0,0,0,1.29-4.32c-2.63-20.26-5.33-40.52-8.26-60.75-.4-2.76.34-4.57,2.55-5.41,3.85-1.47,7.83-3.06,11.87-3.48,5.68-.58,11.47-.27,17.21-.11,9.35.27,15.82,4.71,19.24,13.58q18.38,47.73,36.87,95.43v7.57c-1.33,2.58-2.32,5.4-4,7.69-9.19,12.34-27.79,9.56-33.86-5.17-5.26-12.79-10-25.77-15.05-38.66-.35-.89-.87-1.7-1.62-3.15-.2,1.23-.31,1.64-.32,2.05-.69,35.28.73,70.5,3.08,105.7,1.62,24.15,2.88,48.32,4.24,72.48.29,5.2-.6,10.43-4.53,13.94-3.41,3.06-7.83,5-11.81,7.4h-6.73c-11.6-3.74-15.88-12-16.31-23.85-.87-23.76-2.6-47.49-4-71.22-.56-9.52-1.19-19-1.79-28.54a5.33,5.33,0,0,0-.62,2.49q-3,50.47-5.89,101c-.34,5.82-2,11.14-6.63,14.86-2.74,2.22-6.19,3.56-9.32,5.3Z"/><path d="M419,192.39c-18.91,0-34.88-16.11-34.68-34.89a35.09,35.09,0,0,1,34.55-34.57c18.74-.25,34.8,15.71,34.91,34.66C453.87,176.39,437.83,192.44,419,192.39Z"/><path d="M237.12,162v11.2H161.76V162Z"/><path d="M161.69,225.92V214.76H237v11.16Z"/></svg>