<svg id="Layer_1" data-name="Layer 1" xmlns="http://www.w3.org/2000/svg" viewBox="0 0 270 270"><defs><style>.cls-1{fill:#e8772c;}.cls-2{fill:#fff;}</style></defs><title>icon_mercury</title><circle class="cls-1" cx="135" cy="135" r="135"/><path class="cls-2" d="M61.35,223.68c-3.59-1.09-6.12-3.18-6.47-7.13a10.11,10.11,0,0,1,.4-3.45q6.59-24.94,13.24-49.87c.15-.54.26-1.08.43-1.83H46.32c-3.75,0-5.14-1.38-5.14-5.13q0-43.67,0-87.32a3.6,3.6,0,0,0-1.34-3.14,7,7,0,0,1-2.38-7.24,7.36,7.36,0,0,1,5.41-5.8A11.39,11.39,0,0,1,46,52.41q47.67,0,95.35,0c4.27,0,7.21,1.91,8.32,5.39a7.88,7.88,0,0,1-2.38,8.33,3.32,3.32,0,0,0-1,2.2c-.07,10.6-.05,21.19-.05,31.79v2.24c-2.56-.54-4.95-1-7.29-1.6-.29-.08-.52-1-.52-1.55,0-6.8,0-13.6,0-20.41V68.13H49v85.38h89.37V132.57c2.57.54,4.9,1,7.21,1.55.29.08.61.75.61,1.15,0,7.25.08,14.5,0,21.75,0,2.92-1.67,4.37-4.73,4.38-7,0-14,0-21.08,0h-2c.16.71.27,1.24.41,1.76,4.36,16.35,8.63,32.73,13.14,49,1.36,4.92.12,9.82-6.07,11.47h-2.34a8.93,8.93,0,0,1-6.64-7c-2.16-8.52-4.48-17-6.75-25.5q-3.78-14.19-7.6-28.37c-.15-.53-.68-1.36-1-1.37-5.45-.09-10.91-.06-16.36-.06-.17.56-.31,1-.42,1.41-4.69,17.58-9.44,35.14-14,52.75-1,3.89-2.7,6.88-6.72,8.11Z"/><path class="cls-2" d="M55.52,137.45V91.12H87.26v46.33ZM60,95.39v37.52H82.82V95.39Z"/><path class="cls-2" d="M192.41,228.46c-5.38-2-6.79-4.3-6.45-10.13.93-15.58,2.1-31.15,2.64-46.74.43-12.74.08-25.52.08-38.41l-12.81-2.74q-16.67-3.54-33.32-7.1c-4.07-.87-6.59-3.71-6.7-7.44a7.42,7.42,0,0,1,5.47-7.66,11.07,11.07,0,0,1,4.76,0c14.22,3,28.41,6.09,42.64,9,2.2.45,4.57,0,6.82.29a25.23,25.23,0,0,1,5.1,1.28c1,.35,1.37,1.18,1.19,2.41-1.13,7.82-2.12,15.67-3.25,23.5a2.58,2.58,0,0,0,1.06,2.84c1.47,1.1,2.82,2.35,4.29,3.59,1.67-1.41,3.32-2.73,4.85-4.17a2.26,2.26,0,0,0,.52-1.72c-1.05-8.07-2.12-16.13-3.29-24.17-.16-1.1.14-1.82,1-2.16a19,19,0,0,1,4.72-1.38,54,54,0,0,1,6.85,0,7.82,7.82,0,0,1,7.65,5.41q7.32,19,14.67,38v3a20.17,20.17,0,0,1-1.6,3.06c-3.66,4.91-11.06,3.81-13.47-2.06-2.1-5.09-4-10.25-6-15.38-.14-.35-.35-.68-.65-1.25a6.57,6.57,0,0,0-.12.81c-.28,14,.29,28.05,1.22,42.06.65,9.61,1.15,19.23,1.69,28.84.12,2.07-.24,4.15-1.8,5.55a31.23,31.23,0,0,1-4.7,2.94h-2.68c-4.62-1.49-6.32-4.77-6.49-9.49-.35-9.45-1-18.89-1.59-28.34-.23-3.78-.48-7.57-.71-11.35a2.14,2.14,0,0,0-.25,1q-1.17,20.08-2.34,40.17a7.78,7.78,0,0,1-2.64,5.92,25.37,25.37,0,0,1-3.71,2.1Z"/><path class="cls-2" d="M203.91,113.66a13.82,13.82,0,1,1,13.84-13.85A14,14,0,0,1,203.91,113.66Z"/><path class="cls-2" d="M131.55,101.57V106h-30v-4.46Z"/><path class="cls-2" d="M101.53,127v-4.44h30V127Z"/></svg>