<svg id="Layer_1" data-name="Layer 1" xmlns="http://www.w3.org/2000/svg" viewBox="0 0 270 270"><defs><style>.cls-1{fill:#e8772c;}.cls-2{fill:#fff;}</style></defs><title>icon_mercury</title><circle class="cls-1" cx="135" cy="135" r="135"/><path class="cls-2" d="M41.78,54.19h89V47.77h8v6.36h89.08V197.88H169.26l19.62,31.34-6.57,4.4c-.44-.64-.83-1.18-1.19-1.75q-10.19-16.22-20.35-32.47a2.76,2.76,0,0,0-2.71-1.49q-23.2.08-46.39,0a2.76,2.76,0,0,0-2.7,1.52q-10.06,16.19-20.23,32.33c-.37.58-.75,1.16-1.25,1.91l-6.61-4.4,19.6-31.33H41.78Zm8,135.36H220.32V62.08H49.74Z"/><path class="cls-2" d="M64.78,167.5V84.55h56.83v83Zm7.94-75.31v67.19h41V92.19Z"/><path class="cls-2" d="M200.92,103.25v8H147.23v-8Z"/><path class="cls-2" d="M147.18,148.8v-8h53.68v8Z"/></svg>