<?xml version="1.0" encoding="utf-8"?>
<!-- Generator: Adobe Illustrator 24.0.0, SVG Export Plug-In . SVG Version: 6.00 Build 0)  -->
<svg version="1.1" id="Layer_1" xmlns="http://www.w3.org/2000/svg" xmlns:xlink="http://www.w3.org/1999/xlink" x="0px" y="0px"
	 viewBox="0 0 512 512" style="enable-background:new 0 0 512 512;" xml:space="preserve">
<polygon points="512.5,309.1 512.5,75.1 178.2,75.1 178.2,75.1 0.5,75.1 0.5,112.5 117.5,112.5 117.5,164.1 117.2,330.3 
	154.8,300.8 154.8,250.1 154.8,219.8 154.8,145.8 154.8,115.9 475.1,115.9 475.1,309.1 475.1,354.3 263.9,354.3 215.2,395.1 
	475.1,395.1 475.1,463.3 513.5,463.3 513.5,309.1 "/>
<polygon points="392.7,244.6 423.9,285.7 449.7,148.1 312.4,138.2 341.4,176.6 106.6,354.2 77.6,315.8 49.8,450.7 189.1,463.3 
	158.1,422.3 "/>
</svg>
