<svg id="Layer_1" data-name="Layer 1" xmlns="http://www.w3.org/2000/svg" viewBox="0 0 467.91 335.45"><defs><style>.cls-1{fill:#fbecd7;stroke-width:4px;}.cls-1,.cls-2{stroke:#e8772c;stroke-miterlimit:10;}.cls-2{fill:#fff;stroke-width:5px;}.cls-3{fill:#e8772c;}</style></defs><title>icon_mercury</title><rect class="cls-1" x="7.26" y="6.1" width="452" height="323.55"/><rect class="cls-2" x="146.48" y="56.29" width="294.78" height="211.01"/><path class="cls-2" d="M193.07,174.11A53.25,53.25,0,0,1,152.15,204c-37.76,5.51-49.56-14.95-49.56-14.95l8.65-10.23-37-3.15,10.23,37.77,7.87-11.8S112,230.76,155.3,229.19c46.42-1.69,63.73-41.7,63.73-41.7Z"/><path class="cls-2" d="M100.22,149a53.23,53.23,0,0,1,40.92-29.9c37.76-5.51,49.56,15,49.56,15l-8.65,10.22,37,3.15L208.8,109.66l-7.87,11.8S181.26,92.35,138,93.92c-46.42,1.69-63.73,41.7-63.73,41.7Z"/><path class="cls-3" d="M234,221.48V116.14h72.17V221.48Zm10.08-95.64v85.33h52V125.84Z"/><path class="cls-3" d="M406.87,139.89V150H338.69V139.89Z"/><path class="cls-3" d="M338.62,197.74v-10.1h68.17v10.1Z"/></svg>